<svg width="8" height="20" viewBox="0 0 8 20" fill="none" xmlns="http://www.w3.org/2000/svg">
<path d="M1.76197 14.6769C1.76197 13.2358 1.76197 11.7946 1.76197 10.3477C1.76197 9.94094 1.75132 9.92932 1.3681 9.92932C0.995518 9.92932 0.622939 9.9177 0.25036 9.92932C0.0693929 9.93513 0.000199679 9.85377 0.000199679 9.6562C0.00552223 8.7555 0.0108448 7.8548 0.000199679 6.95409C-0.00512288 6.70422 0.0960057 6.63449 0.298263 6.63449C0.644229 6.6403 0.990195 6.63449 1.33616 6.63449C1.746 6.62868 1.75664 6.61125 1.76197 6.15799C1.76729 5.35608 1.74067 4.55416 1.81519 3.75225C1.98551 1.83462 2.93293 0.788646 4.70002 0.579451C5.71662 0.45742 6.73855 0.51553 7.75516 0.503908C7.92016 0.503908 8 0.57364 8 0.759591C7.99468 1.70678 7.99468 2.65978 8 3.60697C8 3.84522 7.87758 3.87428 7.70726 3.87428C7.23887 3.87428 6.76517 3.87428 6.29678 3.88009C6.14775 3.88009 5.9934 3.8859 5.84437 3.90914C5.60485 3.94982 5.41856 4.08347 5.3813 4.35659C5.29082 5.05972 5.3334 5.76866 5.32808 6.47178C5.32808 6.66355 5.47179 6.63449 5.58356 6.6403C6.22227 6.65192 6.86097 6.66355 7.49968 6.67517C7.53694 6.67517 7.56887 6.68098 7.60613 6.68098C7.87758 6.66936 7.97871 6.80301 7.96274 7.10518C7.91484 7.94777 7.84032 8.78455 7.75516 9.61552C7.73387 9.82472 7.64871 9.88864 7.46774 9.88864C6.87162 9.89445 6.28082 9.9177 5.68469 9.94094C5.34405 9.95256 5.32808 9.96418 5.32808 10.3419C5.32808 12.5094 5.32808 14.6769 5.32275 16.8502C5.32275 17.5882 5.32275 18.3204 5.31743 19.0584C5.31211 19.4361 5.27485 19.4826 4.93421 19.4884C3.98679 19.5 3.03938 19.4884 2.08664 19.5C1.80455 19.5 1.75664 19.3373 1.75664 19.0758C1.76729 17.5998 1.76197 16.1413 1.76197 14.6769Z" fill="black"/>
</svg>
