<svg width="19" height="19" viewBox="0 0 19 19" fill="none" xmlns="http://www.w3.org/2000/svg">
<path d="M4.22976 0.5C7.41385 0.5 10.5979 0.5 13.7915 0.5C13.8574 0.528261 13.9233 0.575363 13.9987 0.594204C16.3915 1.11233 18.0024 3.09061 18.0024 5.53991C18.0024 8.20587 18.0118 10.8718 18.0024 13.5472C17.993 16.2603 15.7792 18.4835 13.0567 18.4929C10.353 18.5024 7.65878 18.5024 4.95513 18.4929C2.85438 18.4929 0.979721 17.1552 0.282612 15.1581C0.178987 14.8661 0.0942039 14.5741 0 14.282C0 11.0979 0 7.91384 0 4.72033C0.0282612 4.65439 0.0753632 4.58845 0.0942039 4.51308C0.565224 2.49712 1.80872 1.21595 3.787 0.631885C3.93772 0.594204 4.11671 0.641306 4.22976 0.5ZM9.01532 4.51308C6.25514 4.51308 4.04135 6.70803 4.03193 9.44937C4.02251 12.2378 6.21746 14.461 8.97764 14.4704C11.7661 14.4799 13.9799 12.2849 13.9893 9.50589C13.9893 6.72687 11.7849 4.5225 9.01532 4.51308ZM15.0161 2.51596C14.4697 2.50654 14.0364 2.93046 14.0175 3.46742C13.9987 4.0138 14.4226 4.45656 14.9596 4.4754C15.5248 4.49424 15.977 4.06091 15.977 3.49568C15.9864 2.95872 15.5625 2.52538 15.0161 2.51596Z" fill="black"/>
<path d="M8.98856 6.50146C10.6748 6.50146 12.0031 7.8109 12.0031 9.4783C12.0031 11.1646 10.6937 12.4928 9.02624 12.4928C7.33999 12.4928 6.01172 11.1834 6.01172 9.51599C6.01172 7.82974 7.32115 6.50146 8.98856 6.50146Z" fill="black"/>
</svg>
